<svg width="88" height="88" viewBox="0 0 88 88" fill="none" xmlns="http://www.w3.org/2000/svg">
<path d="M59.7617 18.0734C59.1027 20.4814 58.5958 22.5345 57.9748 24.5496C56.9355 27.9715 55.7569 31.3047 53.3362 34.0802C50.8775 36.8937 47.8105 37.9583 44.2999 36.9318C42.1454 36.2981 40.1683 35.0814 38.1532 34.0548C37.3674 33.6493 36.6831 33.0156 35.6058 32.2425C36.0114 34.1689 36.3536 35.6771 36.6324 37.1979C37.3294 40.9113 38.1786 44.5993 38.6221 48.338C39.2558 53.4582 36.6704 56.5252 31.4996 56.9814C29.4718 57.1588 27.3806 56.842 25.3148 56.7279C24.6938 56.6899 24.0855 56.5632 23.3504 56.4618C25.2515 59.5035 27.1018 62.3677 28.8254 65.2826C32.843 72.0884 28.3185 76.2326 22.8688 76.9424C21.4114 77.1325 19.8779 76.9677 18.395 76.8283C17.4065 76.7016 16.5954 76.0679 16.7475 74.978C16.8742 73.9894 17.7614 73.7106 18.6992 73.6852C19.6244 73.6472 20.5622 73.6726 21.4621 73.5332C22.514 73.3684 23.5785 73.191 24.5798 72.8234C27.3933 71.7842 28.2298 70.0352 27.0384 67.2724C26.202 65.3207 25.074 63.483 23.9841 61.658C22.9702 59.9597 21.8676 58.2995 20.765 56.6392C20.2074 55.7774 19.6751 54.8903 20.2074 53.8764C20.8157 52.7104 21.969 52.7991 23.0336 52.8752C24.3897 52.9639 25.7204 53.2554 27.0765 53.268C28.7874 53.3061 30.511 53.3061 32.1839 53.0779C34.4525 52.7611 35.3397 51.7726 35.327 49.4786C35.3143 47.2861 35.1749 45.0429 34.8074 42.8757C33.9963 38.2371 33.0331 33.6493 32.0572 29.0488C31.8291 27.9588 31.8417 27.0337 32.7923 26.3873C33.6921 25.7663 34.5539 26.1465 35.3523 26.7422C36.7718 27.8067 38.1659 28.9474 39.636 29.9359C40.9287 30.7977 42.2721 31.6595 43.6916 32.2679C47.481 33.9028 50.0157 33.0916 52.3857 29.7331C54.1727 27.2111 55.4147 24.4229 56.3018 21.4826C56.9482 19.3661 57.4551 17.2116 58.0128 15.0824C58.3043 13.9545 58.6084 12.7885 60.0152 12.6237C61.3459 12.4843 62.0557 13.4475 62.702 14.4234C62.9682 14.8416 63.1709 15.2979 63.3864 15.7415C63.8046 16.6413 64.2862 17.5284 64.6157 18.4663C67.1124 25.4241 72.5621 27.7561 79.3678 27.8448C80.6225 27.8574 81.8899 27.4772 83.1446 27.2364C83.7656 27.1224 84.3739 26.8182 84.9949 26.7802C85.4385 26.7422 86.1102 26.8816 86.2876 27.1857C86.4904 27.5153 86.3383 28.1743 86.1989 28.5672C85.8821 29.4163 85.0203 30.126 84.2345 30.4555C82.6756 31.1019 81.0154 31.6722 79.3552 31.837C75.6798 32.2172 72.1185 31.4694 68.684 30.088C65.7564 28.9093 63.7793 26.7041 62.3852 23.9666C61.498 22.167 60.7629 20.3166 59.7617 18.0734Z" fill="#81ADC8"/>
</svg>
