<svg width="136" height="136" viewBox="0 0 136 136" fill="none" xmlns="http://www.w3.org/2000/svg">
<path d="M95.1229 76.2307C92.7315 76.2179 90.7061 76.2579 88.6876 76.1828C85.2637 76.0696 81.8874 75.8055 78.7192 74.2538C75.5063 72.6764 73.7609 70.1025 73.8403 66.5997C73.8925 64.4491 74.5281 62.3181 74.9783 60.1991C75.1588 59.3715 75.5754 58.5811 76.0237 57.3927C74.3418 58.2455 73.0312 58.9361 71.6931 59.5711C68.43 61.1367 65.2281 62.8368 61.8787 64.1741C57.2983 66.0299 53.8195 64.398 52.1153 59.7267C51.4484 57.8944 51.2231 55.881 50.8165 53.9413C50.6977 53.3573 50.6641 52.763 50.5757 52.0577C48.2327 54.5708 46.0412 56.993 43.7714 59.3105C38.4703 64.7152 33.5139 61.5562 31.5061 56.6898C30.9689 55.3883 30.7411 53.9286 30.5025 52.522C30.3747 51.5759 30.7599 50.6683 31.8061 50.5388C32.7522 50.411 33.2301 51.1627 33.4861 52.0242C33.7507 52.8708 33.9597 53.7449 34.3118 54.5429C34.7251 55.4753 35.1532 56.4164 35.7415 57.2517C37.4006 59.5973 39.2263 59.9376 41.4873 58.1504C43.0858 56.8925 44.5065 55.3932 45.9249 53.9323C47.2449 52.5731 48.5077 51.1413 49.7706 49.7094C50.4297 48.9798 51.1186 48.2673 52.1887 48.5085C53.4184 48.7823 53.6222 49.8714 53.8158 50.8753C54.0699 52.152 54.1301 53.4556 54.4546 54.7135C54.8436 56.306 55.2709 57.9008 55.8968 59.3922C56.7524 61.4127 57.887 61.9885 60.0064 61.408C62.0319 60.8527 64.073 60.1675 65.9871 59.2902C70.0779 57.3896 74.0842 55.361 78.099 53.3174C79.0509 52.8361 79.9101 52.6185 80.7438 53.3377C81.5415 54.0163 81.4034 54.908 81.0502 55.7945C80.4171 57.3718 79.7073 58.9445 79.1571 60.5499C78.6802 61.9597 78.2159 63.4163 78.0049 64.8805C77.4317 68.7921 78.8106 70.9363 82.5057 72.2966C85.2824 73.3247 88.1701 73.7827 91.1107 73.8745C93.2292 73.9479 95.3484 73.8828 97.4568 73.8709C98.5727 73.8609 99.727 73.8533 100.228 75.1141C100.687 76.3108 99.9718 77.2063 99.2291 78.0463C98.9081 78.3963 98.5363 78.697 98.1792 79.0063C97.4503 79.6164 96.7489 80.2819 95.9628 80.8194C90.1439 84.8545 89.3373 90.4751 90.9426 96.7943C91.2419 97.9584 91.9079 99.0368 92.4418 100.138C92.7013 100.684 93.1336 101.172 93.3227 101.737C93.4679 102.138 93.5054 102.794 93.268 103.034C93.0134 103.303 92.3659 103.326 91.9678 103.294C91.1035 103.211 90.2332 102.59 89.7335 101.945C88.7489 100.662 87.8096 99.2677 87.2456 97.7723C85.9825 94.4659 85.7915 90.9853 86.2182 87.4649C86.5829 84.4639 88.1332 82.0878 90.3205 80.1192C91.7657 78.8521 93.2955 77.7132 95.1229 76.2307Z" fill="#81ADC8"/>
</svg>
