<svg width="70" height="31" viewBox="0 0 70 31" fill="none" xmlns="http://www.w3.org/2000/svg">
<path d="M17.5282 3.39728C15.4307 4.5819 13.4382 5.56636 11.427 6.91496C8.47996 8.88142 5.65135 11.0522 2.77487 13.1318C2.0276 13.6665 1.31744 14.5664 0.351886 13.6969C-0.279906 13.1259 -0.0591018 12.2205 0.998655 10.9301C1.61443 10.1872 2.27552 9.48851 3.00107 8.87038C7.11168 5.352 11.6245 2.59889 16.5289 0.654175C17.3649 0.3304 18.2558 0.0689882 19.1404 0.00594358C20.8205 -0.100139 21.7725 1.22744 21.194 2.96702C20.8221 4.08969 20.1754 5.13151 19.5881 6.15999C18.4677 8.10968 17.2663 9.98931 16.1685 11.9611C15.8678 12.504 15.4228 13.4666 15.6412 14.0083C16.0424 14.8349 18.1793 13.4309 19.1387 12.7738C22.0761 10.7891 24.9561 8.69513 27.8744 6.67401C30.7962 4.63852 33.8868 2.94538 37.2488 1.97901C38.2287 1.69759 39.2565 1.50727 40.2649 1.51147C41.8908 1.51265 42.8243 2.97342 42.2956 4.68143C42.04 5.49951 41.6074 6.29628 41.0946 6.96164C39.7913 8.62647 38.3878 10.1848 37.0523 11.8093C35.6565 13.5085 34.2215 15.1962 33.2295 17.769C34.0247 17.3253 34.5309 17.0893 34.9892 16.7622C37.9572 14.7095 40.8835 12.5983 43.8707 10.582C46.589 8.74849 49.4126 7.11538 52.539 6.31065C53.7195 6.01129 54.9993 5.87976 56.1924 6.04617C57.8443 6.28601 58.6171 7.94589 57.8791 9.5923C57.3317 10.802 56.5332 11.8915 55.7488 12.9235C54.2507 14.8699 52.675 16.7317 51.1578 18.6416C50.8162 19.0648 49.8557 20.0142 50.4424 20.3101C51.2822 19.741 52.1254 19.1575 52.9748 18.6066C55.2348 17.1002 57.4626 15.5535 59.7609 14.12C61.8305 12.8194 64.0237 11.817 66.4922 11.9276C68.5734 12.0166 69.634 13.7612 68.7873 15.8531C68.3745 16.8559 67.7977 17.8413 67.1216 18.6588C64.1659 22.2707 61.1552 25.8202 58.1541 29.388C57.8231 29.768 57.4589 30.1691 57.0286 30.3813C56.6315 30.5724 56.0015 30.7412 55.7191 30.5195C55.4368 30.2977 54.9734 29.6684 55.2596 28.7823C55.5283 27.9681 55.9013 27.4157 56.3844 26.757C58.6121 23.7162 60.9077 20.7417 63.1807 17.7451C63.7974 16.9409 64.4368 16.1588 65.0666 15.3585C65.2771 15.1278 65.2484 15.0731 65.1944 14.9494C64.8677 14.6222 63.6074 15.1907 63.0636 15.5235C59.9536 17.4112 56.8758 19.3391 53.8075 21.2853C52.5968 22.0533 51.4401 22.9449 50.2293 23.7129C49.2342 24.3441 48.1471 24.5477 47.2017 23.6533C46.2562 22.7589 46.2498 21.4632 46.7133 20.3675C47.3849 18.7632 48.129 17.1494 49.1319 15.7965C50.645 13.7314 52.4143 11.8803 54.0668 9.93325C54.3445 9.59915 54.6031 9.22862 55.0862 8.56992C54.3289 8.68584 53.8788 8.69196 53.4434 8.81022C50.5867 9.60188 47.9795 11.0369 45.5256 12.7635C42.5803 14.8382 39.7437 17.099 36.814 19.2246C35.6546 20.0693 34.4621 20.935 33.1853 21.5141C30.7041 22.6627 28.8783 21.1241 29.3072 18.2161C29.5154 16.845 30.042 15.4906 30.6487 14.2677C32.1778 11.1599 34.5173 8.75274 36.7722 6.28992C37.2499 5.76825 37.7276 5.24659 38.1087 4.60405C35.3353 4.88119 32.8672 6.0337 30.5392 7.47389C26.9246 9.70588 23.4214 12.1709 19.8582 14.4796C18.9425 15.0726 17.9554 15.6137 16.9353 15.9449C15.2023 16.4975 13.7661 15.2584 13.8555 13.2824C13.9138 11.8364 14.2687 10.3237 14.8014 9.00186C15.5702 7.0565 17.6814 3.68882 17.6851 3.44349C17.7377 3.22793 17.5282 3.39728 17.5282 3.39728Z" fill="#81ADC8"/>
</svg>
